<?xml version="1.0" encoding="UTF-8"?>
<svg version="1.1" xmlns="http://www.w3.org/2000/svg" width="1024" height="1024">
<path d="M0 0 C337.92 0 675.84 0 1024 0 C1024 337.92 1024 675.84 1024 1024 C686.08 1024 348.16 1024 0 1024 C0 686.08 0 348.16 0 0 Z " fill="#523C81" transform="translate(0,0)"/>
<path d="M0 0 C2.61366768 -0.00274232 5.22733426 -0.00679588 7.84099811 -0.01204365 C13.51173565 -0.02130796 19.18238438 -0.01950751 24.8531208 -0.01031113 C33.2858195 0.00332664 41.71845041 -0.00028921 50.1511541 -0.00726973 C65.21404721 -0.01918099 80.27689839 -0.01412257 95.33978917 -0.00199146 C108.5210845 0.00855181 121.70236557 0.01308313 134.88366508 0.01171303 C135.75858748 0.011629 136.63350988 0.01154497 137.53494508 0.01145839 C141.08668075 0.01110613 144.63841642 0.01072212 148.19015208 0.01029281 C181.49548041 0.00632939 214.8007835 0.01903814 248.10610461 0.03981938 C277.68686724 0.05818989 307.26760569 0.06400107 336.84837341 0.05854797 C338.74793701 0.05820154 340.6475006 0.05785544 342.54706419 0.05750968 C343.95573638 0.05725319 343.95573638 0.05725319 345.3928666 0.05699152 C350.1203912 0.05613795 354.8479158 0.05531417 359.57544041 0.05452251 C360.9744877 0.05428689 360.9744877 0.05428689 362.40179858 0.05404651 C387.13056852 0.0500554 411.85933614 0.05553343 436.58810467 0.06403381 C439.2493124 0.06494083 441.91052014 0.06584648 444.57172788 0.06674904 C446.33704777 0.06735015 448.10236766 0.06795877 449.86768754 0.06857495 C462.16800295 0.07279416 474.46831379 0.07337548 486.76862969 0.07146945 C502.62024544 0.06902532 518.47183669 0.07310771 534.32344574 0.08867946 C542.70379655 0.09672239 551.08410657 0.09933663 559.4644598 0.0940371 C565.72360864 0.09070527 571.98270458 0.097846 578.24184334 0.10906217 C580.77260547 0.11199012 583.3033742 0.11155712 585.83413465 0.1074191 C589.2762583 0.10230199 592.71814895 0.10951433 596.16025639 0.11974621 C597.14056687 0.11534972 598.12087735 0.11095324 599.13089421 0.10642353 C616.86887768 0.20670354 632.42166666 4.97046969 645.51365662 17.2804718 C656.50485621 29.01724511 661.82259671 44.70917541 661.73240852 60.54161835 C661.73471621 61.54361283 661.7370239 62.54560731 661.73940152 63.57796526 C661.74469889 66.93838116 661.73571945 70.29860575 661.7268219 73.65901184 C661.72769402 76.09129935 661.72944511 78.52358668 661.73200023 80.95587301 C661.73554157 86.24547341 661.73287139 91.53501647 661.72472382 96.82460785 C661.71264244 104.68999802 661.71205326 112.55535984 661.71380779 120.4207576 C661.71643439 133.65226863 661.70975735 146.88375968 661.69777298 160.11526489 C661.68593784 173.21559752 661.67824086 186.31592183 661.67606735 199.41625977 C661.67592987 200.23088176 661.67579239 201.04550374 661.67565075 201.88481125 C661.67497408 206.02188598 661.67437131 210.15896072 661.673797 214.29603547 C661.66959648 243.59684283 661.65612261 272.89763932 661.63719177 302.19844055 C661.61882227 330.66328371 661.60465535 359.1281239 661.59617615 387.5929718 C661.5959131 388.47042447 661.59565004 389.34787714 661.59537902 390.25191928 C661.59274197 399.06368145 661.59019035 407.87544365 661.5877013 416.68720587 C661.58262891 434.63768758 661.57698641 452.58816909 661.57099915 470.53865051 C661.57072457 471.36397968 661.57044999 472.18930885 661.57016709 473.03964799 C661.5517666 528.15117715 661.5200347 583.26270015 661.48631287 638.3742218 C661.15631287 638.3742218 660.82631287 638.3742218 660.48631287 638.3742218 C660.39132507 637.63711975 660.29633728 636.9000177 660.19847107 636.14057922 C656.13466411 584.67723644 656.13466411 584.67723644 635.48631287 539.3742218 C627.53256106 533.33666518 618.38698269 529.26657358 609.36131287 525.1242218 C607.9325055 524.46176338 606.5038787 523.79891536 605.07542419 523.13569641 C595.82960838 518.85541802 586.53072269 514.70269753 577.18821716 510.63764954 C568.29955167 506.76212649 559.48499899 502.73424693 550.67381287 498.6867218 C538.69041521 493.18330569 526.67182004 487.76896481 514.61131287 482.4367218 C501.733365 476.74103704 488.90525837 470.94373564 476.11131287 465.0617218 C474.91324005 464.51138779 474.91324005 464.51138779 473.69096375 463.94993591 C471.42675657 462.90923475 469.16336147 461.8667939 466.90037537 460.82344055 C466.23638733 460.51790253 465.57239929 460.2123645 464.88829041 459.89756775 C453.48215763 454.6258396 453.48215763 454.6258396 449.56834412 451.3351593 C448.87740662 450.7595929 448.18646912 450.18402649 447.47459412 449.59101868 C446.3975824 448.67932922 446.3975824 448.67932922 445.29881287 447.7492218 C443.77417878 446.475658 442.24943938 445.20222026 440.72459412 443.9289093 C439.99192322 443.31370422 439.25925232 442.69849915 438.50437927 442.06465149 C436.01553275 439.97987368 433.50404387 437.92398744 430.98631287 435.8742218 C426.20664683 431.96825816 421.43902359 428.04779547 416.67381287 424.1242218 C415.95580505 423.53318665 415.23779724 422.94215149 414.49803162 422.33320618 C413.12149704 421.19936287 411.7531735 420.0554633 410.39402771 418.90083313 C408.56595465 417.36083702 408.56595465 417.36083702 406.67625427 416.32221985 C405.03709412 415.30781555 405.03709412 415.30781555 402.48631287 412.3742218 C401.47328596 407.80629053 401.44106819 403.35195039 401.48631287 398.6867218 C401.49803528 396.72412415 401.49803528 396.72412415 401.50999451 394.72187805 C401.89616482 383.53606448 404.94113192 376.71539199 411.08299255 367.65498352 C413.74724704 363.32487472 415.60742392 358.6237951 417.54881287 353.9367218 C417.9302948 353.0292218 418.31177673 352.1217218 418.70481873 351.1867218 C420.060299 347.93530654 421.37201066 344.71712843 422.48631287 341.3742218 C424.90178238 340.44829182 427.33084711 339.91422039 429.84568787 339.31562805 C436.55578123 336.92342021 439.20799689 332.08083422 442.24729919 325.96479797 C447.81710177 314.04570391 451.02680765 301.03282699 454.48631287 288.3742218 C454.77200134 287.33346497 455.05768982 286.29270813 455.35203552 285.22041321 C461.30728607 264.30347027 461.30728607 264.30347027 458.48631287 243.3742218 C454.61594022 236.86066784 449.46962847 234.69641721 442.48631287 232.3742218 C442.26371408 225.01659995 442.93368159 218.03509683 444.01756287 210.7648468 C444.33952615 208.48161877 444.65925751 206.19807516 444.97703552 203.91426086 C445.14294189 202.72481873 445.30884827 201.53537659 445.4797821 200.30989075 C448.21678961 180.39460756 450.1896595 160.74013769 450.11131287 140.6242218 C450.1117157 139.67357849 450.11211853 138.72293518 450.11253357 137.7434845 C450.05650794 115.60273483 444.65080003 95.40546688 429.16209412 78.82344055 C420.02583154 70.46075933 408.50692598 65.0453482 397.34568787 59.9367218 C394.55238807 58.41032847 393.16883012 57.22080965 391.23631287 54.7492218 C375.73642391 36.31783211 353.87294628 26.60400964 330.48631287 22.3742218 C329.66703308 22.20793274 328.8477533 22.04164368 328.00364685 21.87031555 C319.48321389 20.25929421 311.0670863 19.97407977 302.42381287 19.9992218 C301.68298462 20.00009796 300.94215637 20.00097412 300.17887878 20.00187683 C275.24416393 20.09829026 249.94750702 24.29667938 226.33274841 32.46504211 C222.96832975 33.53967074 220.13705263 33.50693677 216.61131287 33.4992218 C207.31892658 33.85129358 200.38815039 37.80329552 192.48631287 42.3742218 C191.05439168 43.17566534 189.62209521 43.97643872 188.18943787 44.77656555 C168.06732466 56.17448519 146.21386159 69.82780125 139.48631287 93.3742218 C135.81383765 109.13939696 135.2494259 124.87829542 135.23631287 140.9992218 C135.23530579 141.86738525 135.23429871 142.73554871 135.23326111 143.63002014 C135.2543999 170.90217375 138.21614921 197.76634987 142.16673279 224.72163391 C142.48631287 227.3742218 142.48631287 227.3742218 142.48631287 231.3742218 C141.83404724 231.58176086 141.18178162 231.78929993 140.50975037 232.00312805 C134.19825749 234.22797584 130.00316883 236.5701798 126.48631287 242.3742218 C122.87522538 251.07365985 124.32197274 260.29587797 126.48631287 269.1867218 C126.70488953 270.11178528 126.92346619 271.03684875 127.14866638 271.98994446 C133.70485161 309.11545541 133.70485161 309.11545541 154.48631287 338.3742218 C156.16660583 338.63138977 156.16660583 338.63138977 157.88084412 338.89375305 C161.81778321 340.51032934 162.09648057 340.79514354 163.75193787 344.42500305 C164.43670325 346.16994162 165.09672977 347.92472074 165.73631287 349.6867218 C166.48391167 351.58686876 167.23939614 353.48392834 168.00193787 355.37812805 C168.39703552 356.36055481 168.79213318 357.34298157 169.19920349 358.35517883 C171.35793439 363.41869672 173.90354741 368.26658416 176.48631287 373.1242218 C176.96745544 374.03470276 177.44859802 374.94518372 177.94432068 375.883255 C179.86702265 379.87252746 179.86702265 379.87252746 182.48631287 383.3742218 C184.44166068 392.45643844 185.59927769 403.34606935 180.54978943 411.50215149 C174.92817784 418.25655906 168.2789347 423.84024592 161.48631287 429.3742218 C160.01777482 430.63777155 158.55489076 431.90794362 157.09959412 433.1867218 C156.46618103 433.7431134 155.83276794 434.299505 155.18016052 434.87275696 C152.99292902 436.8115684 150.83103776 438.77711778 148.67381287 440.7492218 C147.86798767 441.46674622 147.06216248 442.18427063 146.23191833 442.92353821 C144.54708715 444.42739162 142.8757261 445.94671703 141.22825623 447.4914093 C133.01840471 454.78089632 123.85784173 458.70595637 113.86131287 462.9992218 C112.07313156 463.78298039 110.28578929 464.56865582 108.49925232 465.3561554 C104.88379065 466.94844296 101.2652117 468.53327526 97.64402771 470.11250305 C90.95518659 473.03663402 84.30975164 476.0537964 77.6700592 479.08750916 C75.66268069 480.00430602 73.65414451 480.91851921 71.64524841 481.83198547 C64.73263127 484.97609058 57.82609838 488.13328526 50.92381287 491.30000305 C48.00731659 492.63761454 45.09065304 493.97486039 42.17381287 495.3117218 C41.09290375 495.80715988 41.09290375 495.80715988 39.99015808 496.31260681 C28.62791236 501.51679669 17.22536443 506.62543614 5.79881287 511.6867218 C-4.53560134 516.26459466 -14.86099941 520.85740503 -25.13868713 525.5617218 C-26.06125305 525.98300354 -26.98381897 526.40428528 -27.93434143 526.83833313 C-30.46761355 528.0030478 -32.99256994 529.1834459 -35.51368713 530.3742218 C-36.40894104 530.79340881 -37.30419495 531.21259583 -38.22657776 531.64448547 C-49.31450625 536.97857397 -54.64403318 544.51148829 -58.74855042 556.0929718 C-67.35690144 581.7587127 -72.33325838 608.53586685 -75.51368713 635.3742218 C-75.84368713 635.3742218 -76.17368713 635.3742218 -76.51368713 635.3742218 C-76.58218096 580.01864261 -76.64586078 524.6630594 -76.68305969 469.30744934 C-76.68361192 468.48778127 -76.68416415 467.66811319 -76.68473311 466.82360669 C-76.69670557 449.00873948 -76.70778618 431.19387183 -76.71794845 413.37900349 C-76.72293767 404.6422207 -76.7281239 395.90543802 -76.7334137 387.1686554 C-76.73393673 386.29925425 -76.73445977 385.42985311 -76.73499865 384.53410647 C-76.75203501 356.36937084 -76.78207349 328.20466737 -76.81887602 300.03995121 C-76.85663593 271.08987465 -76.88123576 242.13981588 -76.88934709 213.18971512 C-76.89049966 209.09793259 -76.89180221 205.00615013 -76.89319611 200.91436768 C-76.8934658 200.10906971 -76.89373549 199.30377175 -76.89401335 198.47407082 C-76.89873476 185.52648902 -76.91727224 172.57896233 -76.94101527 159.63140297 C-76.964606 146.60534254 -76.97354862 133.57933659 -76.96769264 120.55325556 C-76.96465721 112.82028594 -76.97269937 105.08751617 -76.99687731 97.35458275 C-77.01372362 91.56971241 -77.00948881 85.78500649 -76.99728271 80.00013155 C-76.995598 77.66742081 -77.00062551 75.334693 -77.01321986 73.00201565 C-77.12381303 51.24517165 -74.68519645 32.08493551 -58.97462463 15.59687805 C-41.75056294 0.04054296 -21.84730441 -0.06901121 0 0 Z " fill="#946CD6" transform="translate(219.51368713378906,145.6257781982422)"/>
<path d="M0 0 C1.65684814 -0.00833862 1.65684814 -0.00833862 3.34716797 -0.0168457 C9.61570735 0.03407911 15.82315242 0.30401021 22.07202148 0.78417969 C35.93837642 1.84638979 49.65197284 2.47629317 63.55859375 2.3671875 C64.31659082 2.36185061 65.0745879 2.35651371 65.85555458 2.35101509 C72.85022511 2.29901942 79.84448355 2.22089155 86.83862305 2.12060547 C148.52496621 1.26926189 148.52496621 1.26926189 168.3828125 19.83203125 C171.81596863 24.07260394 171.39268627 28.82736278 171.375 34.0625 C171.48836062 46.75888926 173.28881052 55.59543215 179.6875 66.6875 C180.77106442 68.61184907 181.85440672 70.53632322 182.9375 72.4609375 C183.41703125 73.29802246 183.8965625 74.13510742 184.390625 74.99755859 C185.03257812 76.14345459 185.03257812 76.14345459 185.6875 77.3125 C186.03767181 77.91242767 186.38784363 78.51235535 186.74862671 79.13046265 C187.86987349 81.73635461 187.96508343 83.70656253 188.00634766 86.54003906 C188.03615219 88.10120453 188.03615219 88.10120453 188.06655884 89.69390869 C188.08388565 91.36909576 188.08388565 91.36909576 188.1015625 93.078125 C188.13061172 94.80092682 188.13061172 94.80092682 188.1602478 96.55853271 C188.22002126 100.2264463 188.26642064 103.89439129 188.3125 107.5625 C188.35068178 110.04949284 188.38973362 112.53647249 188.4296875 115.0234375 C188.52572105 121.11967453 188.61077529 127.21599104 188.6875 133.3125 C189.36296875 132.54164063 190.0384375 131.77078125 190.734375 130.9765625 C191.63509344 129.96325426 192.53615313 128.95024929 193.4375 127.9375 C193.8809375 127.42960937 194.324375 126.92171875 194.78125 126.3984375 C198.21514784 122.56055168 200.57393947 120.57669507 205.6875 119.9375 C209.46514178 120.40970522 210.3528345 121.36372537 212.6875 124.3125 C214.76174695 134.42941733 211.14266673 145.25760263 208.5625 155 C208.14702373 156.60763447 207.73198709 158.21538261 207.31738281 159.82324219 C205.2023102 167.95243192 203.0355681 176.07233222 200.4375 184.0625 C200.12401611 185.04029419 200.12401611 185.04029419 199.80419922 186.0378418 C198.08234025 190.99799229 195.45908354 196.54091646 191.6875 200.3125 C189.877215 200.41129565 188.06297273 200.44221514 186.25 200.4375 C185.26128906 200.44007813 184.27257812 200.44265625 183.25390625 200.4453125 C180.6875 200.3125 180.6875 200.3125 178.6875 199.3125 C178.55214844 199.88613281 178.41679688 200.45976562 178.27734375 201.05078125 C171.23868635 228.82608201 157.76490481 254.72979137 137.6875 275.3125 C136.76556254 276.28509705 135.84369114 277.25775672 134.921875 278.23046875 C120.43969715 293.31567026 104.24875136 304.29756064 83.6875 309.3125 C82.35138672 309.64894531 82.35138672 309.64894531 80.98828125 309.9921875 C65.91372188 313.13182469 49.48771716 312.27408768 34.6875 308.3125 C33.06521484 307.91224609 33.06521484 307.91224609 31.41015625 307.50390625 C-2.35000199 298.29659037 -27.69801162 268.57425185 -44.47460938 239.42114258 C-48.4794553 232.26398877 -51.60002531 225.05297657 -54.3125 217.3125 C-54.55226563 216.63574219 -54.79203125 215.95898438 -55.0390625 215.26171875 C-59.3125 203.13865132 -59.3125 203.13865132 -59.3125 199.3125 C-59.8075 199.4775 -60.3025 199.6425 -60.8125 199.8125 C-67.78348976 201.20669795 -67.78348976 201.20669795 -71.3125 200.3125 C-82.73413543 191.50000273 -85.13863329 168.46768116 -88.51660156 155.39111328 C-89.0102209 153.48174525 -89.50864759 151.57360467 -90.01464844 149.66748047 C-94.83819029 131.47700482 -94.83819029 131.47700482 -93.3125 123.3125 C-91.9921875 121.51953125 -91.9921875 121.51953125 -90.3125 120.3125 C-86.30722618 119.78350157 -83.98807703 119.9675245 -80.375 121.8125 C-77.77941009 123.9313489 -75.47433474 126.09378679 -73.12109375 128.46875 C-72.04879517 129.54866211 -72.04879517 129.54866211 -70.95483398 130.65039062 C-70.14187866 131.47313477 -70.14187866 131.47313477 -69.3125 132.3125 C-69.32035522 131.35102051 -69.32035522 131.35102051 -69.32836914 130.37011719 C-69.3755299 123.61956245 -69.36570953 116.87069897 -69.32470703 110.12011719 C-69.31666086 107.61035684 -69.32251778 105.10050783 -69.34326172 102.59082031 C-69.47130666 85.67541001 -68.41713857 73.69352833 -58.50195312 59.77001953 C-52.60345271 51.17676357 -53.11099997 41.83675296 -52.71728516 31.74755859 C-52.00008441 15.03644442 -52.00008441 15.03644442 -46.91357422 9.64355469 C-34.85788862 -0.37895185 -14.76214271 0.05881716 0 0 Z " fill="#FEFEFE" transform="translate(452.3125,271.6875)"/>
<path d="M0 0 C3.85163163 2.80118664 6.79217075 5.95544921 9.8671875 9.54296875 C20.42124835 21.70140149 31.57146046 33.73848787 44 44 C44.49773926 44.41685059 44.99547852 44.83370117 45.50830078 45.26318359 C67.99282003 64.06043257 67.99282003 64.06043257 94 77 C94 77.66 94 78.32 94 79 C92.86046875 79.52207031 91.7209375 80.04414062 90.546875 80.58203125 C68.62659024 90.72987773 47.24168263 101.97034866 29 118 C28.36835938 118.54785156 27.73671875 119.09570312 27.0859375 119.66015625 C21.3811298 124.96119902 17.28183589 131.54954482 13 138 C12.24371649 139.13426591 11.48721596 140.26838716 10.73046875 141.40234375 C10.15941406 142.25957031 9.58835937 143.11679687 9 144 C6.40480168 141.40480168 6.44328023 139.75924745 5.88671875 136.1484375 C5.69319824 134.9205249 5.49967773 133.6926123 5.30029297 132.42749023 C5.09584302 131.07668824 4.89158391 129.72585735 4.6875 128.375 C4.47094486 126.98043657 4.25364793 125.58598815 4.03564453 124.19165039 C3.58027531 121.27146435 3.12955456 118.35061259 2.68212891 115.42919922 C2.02538858 111.14965454 1.3490404 106.87338658 0.66796875 102.59765625 C-6.35862768 58.39524532 -6.35862768 58.39524532 -7 44 C-7.08765625 42.7728125 -7.1753125 41.545625 -7.265625 40.28125 C-7.97473767 26.43338853 -4.35718366 13.07155097 0 0 Z " fill="#FDFDFE" transform="translate(412,565)"/>
<path d="M0 0 C3.6170379 3.6170379 4.25918051 9.04466278 5.625 13.875 C6.11226562 15.49921875 6.11226562 15.49921875 6.609375 17.15625 C9.89862129 28.73771384 9.19049841 39.40698042 7.875 51.25 C7.68248657 53.01404175 7.68248657 53.01404175 7.48608398 54.8137207 C5.49362831 72.27648282 2.71686492 89.63824891 0 107 C-0.21045708 108.34928263 -0.42090677 109.69856641 -0.63134766 111.04785156 C-2.30179938 121.7223073 -4.03279443 132.37581253 -6 143 C-9.47258981 139.71237632 -12.11605586 136.49933688 -14.625 132.4375 C-30.96539042 107.60740954 -58.1578655 93.89793823 -84.30883789 81.375 C-85.17500732 80.95734375 -86.04117676 80.5396875 -86.93359375 80.109375 C-87.69728271 79.74811523 -88.46097168 79.38685547 -89.24780273 79.01464844 C-91 78 -91 78 -92 76 C-90.94683594 75.46632813 -89.89367187 74.93265625 -88.80859375 74.3828125 C-57.68506236 58.39584209 -30.78192368 35.46230025 -8 9 C-6.52322165 7.33121676 -5.04457339 5.66408241 -3.5625 4 C-2.88316406 3.236875 -2.20382812 2.47375 -1.50390625 1.6875 C-1.00761719 1.130625 -0.51132812 0.57375 0 0 Z " fill="#FDFDFE" transform="translate(610,566)"/>
<path d="M0 0 C4.34482679 4.14326266 7.43086768 8.44652445 10.65234375 13.48046875 C12.34210929 16.08394283 14.16062421 18.53883061 16.06640625 20.98828125 C16.84153564 22.01731567 16.84153564 22.01731567 17.63232422 23.06713867 C18.64833344 24.41155653 19.68967165 25.73729975 20.75830078 27.0402832 C22.77091967 29.76014208 24.11001365 31.71467622 23.81420898 35.1706543 C23.03423844 37.85933099 22.04115394 40.4009245 21 43 C20.16065281 45.43596676 19.33236532 47.8742142 18.51171875 50.31640625 C18.05164545 51.65871583 17.5907702 53.00075077 17.12915039 54.3425293 C11.86057386 69.72644863 7.31886649 85.06172253 4 101 C3.80857422 101.88526367 3.61714844 102.77052734 3.41992188 103.68261719 C-2.31533476 130.51042915 -3.57953285 157.6579372 -3 185 C-5 184 -5 184 -5.7671814 182.25312805 C-6.1325853 181.10556282 -6.1325853 181.10556282 -6.50537109 179.93481445 C-6.78726791 179.06051285 -7.06916473 178.18621124 -7.35960388 177.28541565 C-7.66116898 176.3211113 -7.96273407 175.35680695 -8.2734375 174.36328125 C-8.59325089 173.35792831 -8.91306427 172.35257538 -9.24256897 171.3167572 C-10.29709243 167.98517082 -11.33746542 164.64941397 -12.375 161.3125 C-12.73248322 160.16865845 -13.08996643 159.02481689 -13.45828247 157.84631348 C-23.01202435 127.19813793 -30.96168854 96.19387371 -38.25 64.9375 C-38.44544403 64.10295288 -38.64088806 63.26840576 -38.84225464 62.40856934 C-39.38604917 60.07466672 -39.9213757 57.73901663 -40.453125 55.40234375 C-40.61182571 54.72129074 -40.77052643 54.04023773 -40.93403625 53.33854675 C-42.88009124 44.64994098 -42.88009124 44.64994098 -40.94946289 41.03051758 C-40.4621167 40.40814209 -39.97477051 39.7857666 -39.47265625 39.14453125 C-38.93237793 38.44457031 -38.39209961 37.74460937 -37.83544922 37.0234375 C-37.25037598 36.29382813 -36.66530273 35.56421875 -36.0625 34.8125 C-35.46711426 34.05582031 -34.87172852 33.29914062 -34.25830078 32.51953125 C-26.5943063 22.85524456 -18.76984296 14.57547194 -9 7 C-8.10925781 6.30132813 -7.21851563 5.60265625 -6.30078125 4.8828125 C-4.20729292 3.24614502 -2.10759929 1.6184281 0 0 Z " fill="#FDFDFE" transform="translate(465,680)"/>
<path d="M0 0 C12.02784739 4.23635687 23.53806583 16.50882871 31.59375 26.140625 C33.41003261 28.29893486 35.21914445 30.20285165 37.21875 32.171875 C41.46049201 36.71348065 44.86212915 41.32234462 45.10205078 47.72216797 C44.38937148 55.03291756 42.30737081 62.07055234 40.32910156 69.12011719 C38.77070622 74.73576954 37.43356367 80.40108196 36.0859375 86.0703125 C28.2262725 118.90522596 18.74143905 151.00812054 8 183 C7.67 183 7.34 183 7 183 C6.9906543 181.94538574 6.98130859 180.89077148 6.97167969 179.80419922 C6.47136893 131.45222044 -1.08144832 86.30536906 -19.16552734 41.19628906 C-19.44090332 40.47151367 -19.7162793 39.74673828 -20 39 C-20.43860352 38.05157227 -20.87720703 37.10314453 -21.32910156 36.12597656 C-22 33 -22 33 -20.63818359 29.93554688 C-19.89906738 28.87400391 -19.15995117 27.81246094 -18.3984375 26.71875 C-18.00556549 26.14217651 -17.61269348 25.56560303 -17.20791626 24.97155762 C-15.94922159 23.13375208 -14.66312978 21.31726053 -13.375 19.5 C-12.53065025 18.27865635 -11.68818088 17.05601048 -10.84765625 15.83203125 C-9.2891919 13.56761225 -7.71865327 11.31378003 -6.13818359 9.06445312 C-4.04824332 6.06914252 -2.01514764 3.0458218 0 0 Z " fill="#FEFDFE" transform="translate(556,680)"/>
<path d="M0 0 C2.28822633 3.4323395 3.10605712 4.86949594 3 9 C0.94757545 12.12283267 -1.69687431 14.61046958 -4.36621094 17.20849609 C-5.55845276 18.40949951 -5.55845276 18.40949951 -6.77478027 19.63476562 C-9.4112506 22.2816692 -12.07205137 24.90255906 -14.734375 27.5234375 C-16.5683873 29.35200973 -18.40107368 31.18191271 -20.23248291 33.01309204 C-24.07567818 36.84855086 -27.9297763 40.67250025 -31.79394531 44.48681641 C-36.26396452 48.89933594 -40.71640966 53.3289665 -45.15905166 57.76903856 C-49.43109605 62.03844249 -53.71188336 66.29892388 -57.99750519 70.55470657 C-59.82209549 72.36720422 -61.6449883 74.18141227 -63.46617889 75.9973259 C-66.00863445 78.52861703 -68.56078889 81.04967951 -71.11621094 83.56787109 C-71.87375671 84.32520538 -72.63130249 85.08253967 -73.4118042 85.86282349 C-74.10733398 86.54411316 -74.80286377 87.22540283 -75.51947021 87.92733765 C-76.12269985 88.52424093 -76.72592949 89.12114422 -77.34743881 89.73613548 C-79 91 -79 91 -82 91 C-82.8943569 83.46111551 -82.8943569 83.46111551 -80.68997192 79.85980034 C-78.7122731 77.60555516 -76.63846675 75.5253405 -74.47265625 73.45092773 C-73.67286346 72.64982071 -72.87307068 71.84871368 -72.04904175 71.02333069 C-69.40763673 68.38818171 -66.73582702 65.78631929 -64.0625 63.18359375 C-62.22208383 61.3599684 -60.38364849 59.53434198 -58.54711914 57.70680237 C-54.20729852 53.39780024 -49.84803748 49.1094228 -45.4786272 44.83045584 C-40.50327805 39.95586914 -35.55360506 35.05555586 -30.60587502 30.15296257 C-20.43214937 20.0731905 -10.22673326 10.02597329 0 0 Z " fill="#FBFAFC" transform="translate(548,774)"/>
<path d="M0 0 C2.15377564 2.62198774 3.40072174 4.64404172 4 8 C3.34 8 2.68 8 2 8 C2 8.66 2 9.32 2 10 C0.69274902 11.2872467 0.69274902 11.2872467 -1.21289062 12.84399414 C-7.33606715 18.05599167 -12.92561193 23.80176518 -18.59375 29.49609375 C-19.79278954 30.69700203 -20.99205277 31.897687 -22.19152832 33.09815979 C-25.32380208 36.23422285 -28.4530591 39.37327889 -31.58166504 42.51300049 C-34.7843727 45.72600001 -37.98996908 48.93611471 -41.1953125 52.14648438 C-47.46634789 58.42819371 -53.73419523 64.71307358 -60 71 C-61.41989588 66.16863042 -61.07856993 62.60777438 -59 58 C-55.58699694 53.61526701 -51.65949089 49.81881139 -47.67578125 45.95703125 C-46.52809682 44.81988642 -45.38189538 43.68124309 -44.23710632 42.54118347 C-41.22863816 39.55368204 -38.19934358 36.58818941 -35.16546631 33.62652588 C-32.70387828 31.21666858 -30.25715633 28.79202937 -27.81116962 26.36635303 C-7.32049649 6.04702767 -7.32049649 6.04702767 0 0 Z " fill="#F8F7FA" transform="translate(532,723)"/>
<path d="M0 0 C1.0511499 0.6660022 1.0511499 0.6660022 2.12353516 1.34545898 C28.68774687 18.3757406 28.68774687 18.3757406 31.375 26.4375 C29.9375 29.125 29.9375 29.125 28.375 31.4375 C25.34673198 30.09338484 23.39073731 28.62863116 21.14453125 26.20703125 C17.41660787 22.3760773 13.40260019 19.23199183 9.0625 16.125 C7.90802368 15.29186279 7.90802368 15.29186279 6.73022461 14.44189453 C0.45094785 10.00295286 -6.07195725 6.1746706 -12.87426758 2.59643555 C-13.58478271 2.22172119 -14.29529785 1.84700684 -15.02734375 1.4609375 C-15.65116943 1.14044434 -16.27499512 0.81995117 -16.91772461 0.48974609 C-18.77673183 -0.65601697 -20.14348615 -1.96667444 -21.625 -3.5625 C-12.58533874 -7.61476194 -8.01253677 -5.11712819 0 0 Z " fill="#F8F7FA" transform="translate(510.625,667.5625)"/>
<path d="M0 0 C1.07907628 3.96026209 1.03527961 7.02011363 0 11 C-3.28295082 16.18339729 -7.87488334 20.41345963 -12.26806641 24.6472168 C-14.37245907 26.68503945 -16.41483572 28.77309973 -18.45703125 30.87304688 C-19.78832712 32.19347972 -21.12286271 33.51065586 -22.4609375 34.82421875 C-23.06553802 35.44592453 -23.67013855 36.06763031 -24.2930603 36.70817566 C-27.97248735 40.17445971 -30.34327226 41.37183451 -35.47119141 41.38598633 C-36.98309713 41.28802801 -38.49449503 41.17002802 -40 41 C-35.8184651 35.93814197 -31.36344007 31.30357822 -26.66015625 26.72265625 C-24.58613968 24.59991095 -22.64199998 22.45942956 -20.70703125 20.21484375 C-16.86601924 15.78410903 -12.7814326 11.63346888 -8.625 7.5 C-7.90183594 6.77296875 -7.17867187 6.0459375 -6.43359375 5.296875 C-5.74652344 4.61109375 -5.05945313 3.9253125 -4.3515625 3.21875 C-3.42077881 2.2896582 -3.42077881 2.2896582 -2.47119141 1.34179688 C-1 0 -1 0 0 0 Z " fill="#F8F6F9" transform="translate(558,833)"/>
<path d="M0 0 C2.475 0.495 2.475 0.495 5 1 C4.67 1.99 4.34 2.98 4 4 C3.34 3.67 2.68 3.34 2 3 C2.09023438 3.88768066 2.18046875 4.77536133 2.2734375 5.68994141 C1.92229816 9.94060852 0.66338197 11.03649486 -2.375 13.9609375 C-3.27734375 14.84394531 -4.1796875 15.72695313 -5.109375 16.63671875 C-6.06328125 17.54035156 -7.0171875 18.44398438 -8 19.375 C-8.96490526 20.30979245 -9.92846363 21.24597731 -10.890625 22.18359375 C-13.24751942 24.46978134 -15.61724979 26.74082327 -18 29 C-18.66 28.67 -19.32 28.34 -20 28 C-19.39414062 27.43603516 -18.78828125 26.87207031 -18.1640625 26.29101562 C-15.91143234 24.17527607 -13.67779295 22.04164353 -11.45507812 19.89453125 C-10.02023308 18.51939117 -8.56489371 17.16573901 -7.109375 15.8125 C-2.20330121 11.34967141 -2.20330121 11.34967141 0.625 5.55859375 C0.69282362 3.13966309 0.69282362 3.13966309 0 0 Z " fill="#351B6C" transform="translate(550,775)"/>
<path d="M0 0 C2.8751945 1.28888029 5.0071564 2.53266983 7 5 C7.33 6.32 7.66 7.64 8 9 C9.65 6.69 11.3 4.38 13 2 C13.33 2.66 13.66 3.32 14 4 C10.7 8.95 7.4 13.9 4 19 C3.67 18.34 3.34 17.68 3 17 C3.33 16.01 3.66 15.02 4 14 C2.68 14 1.36 14 0 14 C0.33 13.34 0.66 12.68 1 12 C1.66 12.33 2.32 12.66 3 13 C4.46780909 9.82647392 4.46780909 9.82647392 5 6 C3.64051603 3.50309917 2.066728 2.01752019 0 0 Z " fill="#3D2571" transform="translate(536,686)"/>
<path d="M0 0 C0.66 0.33 1.32 0.66 2 1 C-11.57421875 14.57421875 -11.57421875 14.57421875 -13.91162109 16.89990234 C-15.15470079 18.14995747 -16.38629373 19.41188081 -17.59228516 20.69775391 C-18.67609339 21.84983353 -19.83068144 22.9348137 -21 24 C-21.99 24 -22.98 24 -24 24 C-16.08 16.08 -8.16 8.16 0 0 Z " fill="#38206F" transform="translate(527,738)"/>
<path d="M0 0 C0.33 0.66 0.66 1.32 1 2 C-6 9 -13 16 -20 23 C-20 20 -20 20 -18.1640625 17.82348633 C-17.32617188 17.00130615 -16.48828125 16.17912598 -15.625 15.33203125 C-14.72265625 14.43935547 -13.8203125 13.54667969 -12.890625 12.62695312 C-11.9272427 11.68863843 -10.96369892 10.7504895 -10 9.8125 C-9.03577654 8.86332231 -8.07222608 7.91346044 -7.109375 6.96289062 C-4.74613254 4.63509681 -2.37618518 2.31456867 0 0 Z " fill="#39206F" transform="translate(550,851)"/>
<path d="M0 0 C2.31966166 2.84685749 3.91581154 5.4763875 5 9 C4.67 9.99 4.34 10.98 4 12 C3.34 11.67 2.68 11.34 2 11 C2.33 12.65 2.66 14.3 3 16 C0.49701566 13.06171403 -0.46930939 10.82097239 -1 7 C-0.34 7 0.32 7 1 7 C0.67 4.69 0.34 2.38 0 0 Z " fill="#402873" transform="translate(534,715)"/>
<path d="M0 0 C0.33 0 0.66 0 1 0 C1.95619733 3.99795892 2.1039592 7.70803922 2.0625 11.8125 C2.05347656 12.97394531 2.04445313 14.13539063 2.03515625 15.33203125 C2.02355469 16.21246094 2.01195312 17.09289062 2 18 C1.01 17.34 0.02 16.68 -1 16 C-1.24890658 13.38944406 -1.3272977 11.03905078 -1.25 8.4375 C-1.24484375 7.73947266 -1.2396875 7.04144531 -1.234375 6.32226562 C-1.1541718 1.1541718 -1.1541718 1.1541718 0 0 Z " fill="#5E4989" transform="translate(624,301)"/>
<path d="M0 0 C0.66 0.33 1.32 0.66 2 1 C1.55090939 2.48199902 1.09043436 3.96055236 0.625 5.4375 C0.36976563 6.26121094 0.11453125 7.08492187 -0.1484375 7.93359375 C-1 10 -1 10 -3 11 C-2.69217504 9.35328588 -2.37860766 7.70764424 -2.0625 6.0625 C-1.88847656 5.14597656 -1.71445312 4.22945312 -1.53515625 3.28515625 C-1 1 -1 1 0 0 Z " fill="#452E77" transform="translate(480,739)"/>
<path d="M0 0 C1.32 0 2.64 0 4 0 C3.67 1.65 3.34 3.3 3 5 C2.01 5 1.02 5 0 5 C0 3.35 0 1.7 0 0 Z " fill="#402873" transform="translate(467,789)"/>
<path d="M0 0 C0.33 0.66 0.66 1.32 1 2 C-1.47812494 5.45167403 -2.79606135 7.23163306 -7 8 C-6.02133662 6.85373678 -5.04205413 5.70800212 -4.0625 4.5625 C-3.51722656 3.92441406 -2.97195313 3.28632812 -2.41015625 2.62890625 C-1.63204305 1.73008851 -0.84063472 0.84063472 0 0 Z " fill="#3A2270" transform="translate(502,763)"/>
<path d="M0 0 C2.475 0.495 2.475 0.495 5 1 C4.67 1.99 4.34 2.98 4 4 C3.34 3.67 2.68 3.34 2 3 C2 3.99 2 4.98 2 6 C1.34 6 0.68 6 0 6 C0 4.02 0 2.04 0 0 Z " fill="#3F2673" transform="translate(550,775)"/>
</svg>
